<mxfile host="app.diagrams.net" agent="Mozilla/5.0 (Windows NT 10.0; Win64; x64) AppleWebKit/537.36 (KHTML, like Gecko) Chrome/135.0.0.0 Safari/537.36" version="26.2.13">
  <diagram name="Trang-1" id="XJPuR42h_ewM5GbOSvaJ">
    <mxGraphModel dx="2042" dy="1933" grid="1" gridSize="10" guides="1" tooltips="1" connect="1" arrows="1" fold="1" page="1" pageScale="1" pageWidth="827" pageHeight="1169" math="0" shadow="0">
      <root>
        <mxCell id="0" />
        <mxCell id="1" parent="0" />
        <mxCell id="h9RAE376XjcLG4TrBPpC-2" value="x&lt;span style=&quot;white-space: pre;&quot;&gt;&#x9;&lt;/span&gt;" style="ellipse;whiteSpace=wrap;html=1;" vertex="1" parent="1">
          <mxGeometry x="340" y="-10" width="140" height="60" as="geometry" />
        </mxCell>
        <mxCell id="h9RAE376XjcLG4TrBPpC-3" value="" style="endArrow=classic;html=1;rounded=0;exitX=0.5;exitY=1;exitDx=0;exitDy=0;" edge="1" parent="1" source="h9RAE376XjcLG4TrBPpC-2">
          <mxGeometry width="50" height="50" relative="1" as="geometry">
            <mxPoint x="412" y="60" as="sourcePoint" />
            <mxPoint x="410" y="100" as="targetPoint" />
          </mxGeometry>
        </mxCell>
        <mxCell id="h9RAE376XjcLG4TrBPpC-4" value="Start Serial communication.&lt;br&gt;Initialize LCD display.&lt;div&gt;Initialize fingerprint sensor.&lt;/div&gt;" style="rounded=0;whiteSpace=wrap;html=1;" vertex="1" parent="1">
          <mxGeometry x="340" y="70" width="140" height="80" as="geometry" />
        </mxCell>
        <mxCell id="h9RAE376XjcLG4TrBPpC-5" value="" style="endArrow=classic;html=1;rounded=0;exitX=0.45;exitY=0.992;exitDx=0;exitDy=0;exitPerimeter=0;entryX=0.5;entryY=0;entryDx=0;entryDy=0;" edge="1" parent="1" source="h9RAE376XjcLG4TrBPpC-4" target="h9RAE376XjcLG4TrBPpC-7">
          <mxGeometry width="50" height="50" relative="1" as="geometry">
            <mxPoint x="400" y="220" as="sourcePoint" />
            <mxPoint x="403" y="190" as="targetPoint" />
          </mxGeometry>
        </mxCell>
        <mxCell id="h9RAE376XjcLG4TrBPpC-7" value="sensor is working?" style="rhombus;whiteSpace=wrap;html=1;" vertex="1" parent="1">
          <mxGeometry x="370" y="180" width="80" height="80" as="geometry" />
        </mxCell>
        <mxCell id="h9RAE376XjcLG4TrBPpC-8" value="" style="endArrow=classic;html=1;rounded=0;exitX=1;exitY=0.5;exitDx=0;exitDy=0;" edge="1" parent="1" source="h9RAE376XjcLG4TrBPpC-7">
          <mxGeometry width="50" height="50" relative="1" as="geometry">
            <mxPoint x="470" y="220" as="sourcePoint" />
            <mxPoint x="500" y="220" as="targetPoint" />
          </mxGeometry>
        </mxCell>
        <mxCell id="h9RAE376XjcLG4TrBPpC-9" value="Show: &lt;strong data-end=&quot;407&quot; data-start=&quot;388&quot;&gt;&quot;Sensor Failed&quot;&lt;/strong&gt; → Stop program" style="rounded=0;whiteSpace=wrap;html=1;" vertex="1" parent="1">
          <mxGeometry x="500" y="190" width="120" height="60" as="geometry" />
        </mxCell>
        <mxCell id="h9RAE376XjcLG4TrBPpC-10" value="no" style="text;html=1;align=center;verticalAlign=middle;resizable=0;points=[];autosize=1;strokeColor=none;fillColor=none;" vertex="1" parent="1">
          <mxGeometry x="470" y="188" width="40" height="30" as="geometry" />
        </mxCell>
        <mxCell id="h9RAE376XjcLG4TrBPpC-11" value="" style="endArrow=classic;html=1;rounded=0;exitX=0.5;exitY=1;exitDx=0;exitDy=0;" edge="1" parent="1" source="h9RAE376XjcLG4TrBPpC-7">
          <mxGeometry width="50" height="50" relative="1" as="geometry">
            <mxPoint x="380" y="320" as="sourcePoint" />
            <mxPoint x="410" y="300" as="targetPoint" />
          </mxGeometry>
        </mxCell>
        <mxCell id="h9RAE376XjcLG4TrBPpC-12" value="Show: &lt;strong data-end=&quot;354&quot; data-start=&quot;336&quot;&gt;&quot;Sensor Ready&quot;&lt;/strong&gt;" style="rounded=0;whiteSpace=wrap;html=1;" vertex="1" parent="1">
          <mxGeometry x="350" y="300" width="120" height="60" as="geometry" />
        </mxCell>
        <mxCell id="h9RAE376XjcLG4TrBPpC-13" value="yes" style="text;html=1;align=center;verticalAlign=middle;resizable=0;points=[];autosize=1;strokeColor=none;fillColor=none;" vertex="1" parent="1">
          <mxGeometry x="400" y="268" width="40" height="30" as="geometry" />
        </mxCell>
        <mxCell id="h9RAE376XjcLG4TrBPpC-14" value="" style="endArrow=classic;html=1;rounded=0;exitX=0.5;exitY=1;exitDx=0;exitDy=0;" edge="1" parent="1" source="h9RAE376XjcLG4TrBPpC-12">
          <mxGeometry width="50" height="50" relative="1" as="geometry">
            <mxPoint x="390" y="440" as="sourcePoint" />
            <mxPoint x="410" y="400" as="targetPoint" />
          </mxGeometry>
        </mxCell>
        <mxCell id="h9RAE376XjcLG4TrBPpC-15" value="Display Main Menu (LCD &amp;amp; Serial)&lt;br&gt;&lt;div&gt;1: Enroll Finger&lt;/div&gt;&lt;div&gt;2: Verify Finger&lt;/div&gt;&lt;div&gt;3: Delete Finger&lt;/div&gt;" style="rounded=0;whiteSpace=wrap;html=1;" vertex="1" parent="1">
          <mxGeometry x="354" y="400" width="120" height="100" as="geometry" />
        </mxCell>
        <mxCell id="h9RAE376XjcLG4TrBPpC-16" value="Wait for User Input (Option 1–3)" style="whiteSpace=wrap;html=1;" vertex="1" parent="1">
          <mxGeometry x="354" y="530" width="120" height="60" as="geometry" />
        </mxCell>
        <mxCell id="h9RAE376XjcLG4TrBPpC-17" value="" style="endArrow=classic;html=1;rounded=0;exitX=0.5;exitY=1;exitDx=0;exitDy=0;entryX=0.5;entryY=0;entryDx=0;entryDy=0;" edge="1" parent="1" source="h9RAE376XjcLG4TrBPpC-15" target="h9RAE376XjcLG4TrBPpC-16">
          <mxGeometry width="50" height="50" relative="1" as="geometry">
            <mxPoint x="290" y="580" as="sourcePoint" />
            <mxPoint x="340" y="530" as="targetPoint" />
          </mxGeometry>
        </mxCell>
        <mxCell id="h9RAE376XjcLG4TrBPpC-22" value="" style="edgeStyle=orthogonalEdgeStyle;rounded=0;orthogonalLoop=1;jettySize=auto;html=1;" edge="1" parent="1" source="h9RAE376XjcLG4TrBPpC-19" target="h9RAE376XjcLG4TrBPpC-21">
          <mxGeometry relative="1" as="geometry" />
        </mxCell>
        <mxCell id="h9RAE376XjcLG4TrBPpC-43" value="" style="edgeStyle=orthogonalEdgeStyle;rounded=0;orthogonalLoop=1;jettySize=auto;html=1;" edge="1" parent="1" source="h9RAE376XjcLG4TrBPpC-19" target="h9RAE376XjcLG4TrBPpC-42">
          <mxGeometry relative="1" as="geometry" />
        </mxCell>
        <mxCell id="h9RAE376XjcLG4TrBPpC-62" value="" style="edgeStyle=orthogonalEdgeStyle;rounded=0;orthogonalLoop=1;jettySize=auto;html=1;" edge="1" parent="1" source="h9RAE376XjcLG4TrBPpC-19" target="h9RAE376XjcLG4TrBPpC-61">
          <mxGeometry relative="1" as="geometry" />
        </mxCell>
        <mxCell id="h9RAE376XjcLG4TrBPpC-19" value="choice" style="rhombus;whiteSpace=wrap;html=1;" vertex="1" parent="1">
          <mxGeometry x="374" y="620" width="80" height="80" as="geometry" />
        </mxCell>
        <mxCell id="h9RAE376XjcLG4TrBPpC-20" value="" style="endArrow=classic;html=1;rounded=0;exitX=0.5;exitY=1;exitDx=0;exitDy=0;entryX=0.5;entryY=0;entryDx=0;entryDy=0;" edge="1" parent="1" source="h9RAE376XjcLG4TrBPpC-16" target="h9RAE376XjcLG4TrBPpC-19">
          <mxGeometry width="50" height="50" relative="1" as="geometry">
            <mxPoint x="400" y="620" as="sourcePoint" />
            <mxPoint x="450" y="570" as="targetPoint" />
          </mxGeometry>
        </mxCell>
        <mxCell id="h9RAE376XjcLG4TrBPpC-24" value="" style="edgeStyle=orthogonalEdgeStyle;rounded=0;orthogonalLoop=1;jettySize=auto;html=1;" edge="1" parent="1" source="h9RAE376XjcLG4TrBPpC-21" target="h9RAE376XjcLG4TrBPpC-23">
          <mxGeometry relative="1" as="geometry" />
        </mxCell>
        <mxCell id="h9RAE376XjcLG4TrBPpC-21" value="Option:1&amp;nbsp;Enroll Finger" style="whiteSpace=wrap;html=1;" vertex="1" parent="1">
          <mxGeometry x="70" y="740" width="120" height="60" as="geometry" />
        </mxCell>
        <mxCell id="h9RAE376XjcLG4TrBPpC-27" value="" style="edgeStyle=orthogonalEdgeStyle;rounded=0;orthogonalLoop=1;jettySize=auto;html=1;" edge="1" parent="1" source="h9RAE376XjcLG4TrBPpC-23" target="h9RAE376XjcLG4TrBPpC-26">
          <mxGeometry relative="1" as="geometry" />
        </mxCell>
        <mxCell id="h9RAE376XjcLG4TrBPpC-23" value="Ask for ID input (1–127)" style="whiteSpace=wrap;html=1;" vertex="1" parent="1">
          <mxGeometry x="70" y="830" width="120" height="50" as="geometry" />
        </mxCell>
        <mxCell id="h9RAE376XjcLG4TrBPpC-25" style="edgeStyle=orthogonalEdgeStyle;rounded=0;orthogonalLoop=1;jettySize=auto;html=1;exitX=0.5;exitY=1;exitDx=0;exitDy=0;" edge="1" parent="1" source="h9RAE376XjcLG4TrBPpC-23" target="h9RAE376XjcLG4TrBPpC-23">
          <mxGeometry relative="1" as="geometry" />
        </mxCell>
        <mxCell id="h9RAE376XjcLG4TrBPpC-29" value="" style="edgeStyle=orthogonalEdgeStyle;rounded=0;orthogonalLoop=1;jettySize=auto;html=1;" edge="1" parent="1" source="h9RAE376XjcLG4TrBPpC-26" target="h9RAE376XjcLG4TrBPpC-28">
          <mxGeometry relative="1" as="geometry" />
        </mxCell>
        <mxCell id="h9RAE376XjcLG4TrBPpC-31" value="" style="edgeStyle=orthogonalEdgeStyle;rounded=0;orthogonalLoop=1;jettySize=auto;html=1;" edge="1" parent="1" source="h9RAE376XjcLG4TrBPpC-26" target="h9RAE376XjcLG4TrBPpC-30">
          <mxGeometry relative="1" as="geometry" />
        </mxCell>
        <mxCell id="h9RAE376XjcLG4TrBPpC-26" value="scan Finger&lt;br&gt;1st" style="whiteSpace=wrap;html=1;" vertex="1" parent="1">
          <mxGeometry x="10" y="920" width="120" height="60" as="geometry" />
        </mxCell>
        <mxCell id="h9RAE376XjcLG4TrBPpC-28" value="save image to buffer" style="whiteSpace=wrap;html=1;" vertex="1" parent="1">
          <mxGeometry x="210" y="920" width="120" height="60" as="geometry" />
        </mxCell>
        <mxCell id="h9RAE376XjcLG4TrBPpC-33" value="" style="edgeStyle=orthogonalEdgeStyle;rounded=0;orthogonalLoop=1;jettySize=auto;html=1;" edge="1" parent="1" source="h9RAE376XjcLG4TrBPpC-30" target="h9RAE376XjcLG4TrBPpC-32">
          <mxGeometry relative="1" as="geometry" />
        </mxCell>
        <mxCell id="h9RAE376XjcLG4TrBPpC-30" value="wait to remove finger" style="whiteSpace=wrap;html=1;" vertex="1" parent="1">
          <mxGeometry x="10" y="1000" width="120" height="60" as="geometry" />
        </mxCell>
        <mxCell id="h9RAE376XjcLG4TrBPpC-37" value="" style="edgeStyle=orthogonalEdgeStyle;rounded=0;orthogonalLoop=1;jettySize=auto;html=1;" edge="1" parent="1" source="h9RAE376XjcLG4TrBPpC-32" target="h9RAE376XjcLG4TrBPpC-36">
          <mxGeometry relative="1" as="geometry" />
        </mxCell>
        <mxCell id="h9RAE376XjcLG4TrBPpC-32" value="scan finger 2nd" style="whiteSpace=wrap;html=1;" vertex="1" parent="1">
          <mxGeometry x="10" y="1080" width="120" height="60" as="geometry" />
        </mxCell>
        <mxCell id="h9RAE376XjcLG4TrBPpC-40" value="" style="edgeStyle=orthogonalEdgeStyle;rounded=0;orthogonalLoop=1;jettySize=auto;html=1;" edge="1" parent="1" source="h9RAE376XjcLG4TrBPpC-36" target="h9RAE376XjcLG4TrBPpC-39">
          <mxGeometry relative="1" as="geometry" />
        </mxCell>
        <mxCell id="h9RAE376XjcLG4TrBPpC-36" value="check matches?" style="rhombus;whiteSpace=wrap;html=1;" vertex="1" parent="1">
          <mxGeometry x="230" y="1070" width="80" height="80" as="geometry" />
        </mxCell>
        <mxCell id="h9RAE376XjcLG4TrBPpC-38" value="" style="endArrow=classic;html=1;rounded=0;exitX=0.5;exitY=1;exitDx=0;exitDy=0;entryX=0.5;entryY=0;entryDx=0;entryDy=0;" edge="1" parent="1" source="h9RAE376XjcLG4TrBPpC-28" target="h9RAE376XjcLG4TrBPpC-36">
          <mxGeometry width="50" height="50" relative="1" as="geometry">
            <mxPoint x="260" y="1060" as="sourcePoint" />
            <mxPoint x="310" y="1010" as="targetPoint" />
          </mxGeometry>
        </mxCell>
        <mxCell id="h9RAE376XjcLG4TrBPpC-74" style="edgeStyle=orthogonalEdgeStyle;rounded=0;orthogonalLoop=1;jettySize=auto;html=1;exitX=0.5;exitY=1;exitDx=0;exitDy=0;" edge="1" parent="1" source="h9RAE376XjcLG4TrBPpC-39">
          <mxGeometry relative="1" as="geometry">
            <mxPoint x="270" y="1340" as="targetPoint" />
          </mxGeometry>
        </mxCell>
        <mxCell id="h9RAE376XjcLG4TrBPpC-39" value="create fingermodel with ID and stored&amp;nbsp;&lt;br&gt;Show msg: Enroll sucess" style="whiteSpace=wrap;html=1;" vertex="1" parent="1">
          <mxGeometry x="210" y="1220" width="120" height="60" as="geometry" />
        </mxCell>
        <mxCell id="h9RAE376XjcLG4TrBPpC-41" value="yes" style="text;html=1;align=center;verticalAlign=middle;resizable=0;points=[];autosize=1;strokeColor=none;fillColor=none;" vertex="1" parent="1">
          <mxGeometry x="270" y="1198" width="40" height="30" as="geometry" />
        </mxCell>
        <mxCell id="h9RAE376XjcLG4TrBPpC-45" value="" style="edgeStyle=orthogonalEdgeStyle;rounded=0;orthogonalLoop=1;jettySize=auto;html=1;" edge="1" parent="1" source="h9RAE376XjcLG4TrBPpC-42" target="h9RAE376XjcLG4TrBPpC-44">
          <mxGeometry relative="1" as="geometry" />
        </mxCell>
        <mxCell id="h9RAE376XjcLG4TrBPpC-42" value="option 2:&lt;br&gt;Verify Finger" style="whiteSpace=wrap;html=1;" vertex="1" parent="1">
          <mxGeometry x="370" y="730" width="120" height="60" as="geometry" />
        </mxCell>
        <mxCell id="h9RAE376XjcLG4TrBPpC-47" value="" style="edgeStyle=orthogonalEdgeStyle;rounded=0;orthogonalLoop=1;jettySize=auto;html=1;" edge="1" parent="1" source="h9RAE376XjcLG4TrBPpC-44" target="h9RAE376XjcLG4TrBPpC-46">
          <mxGeometry relative="1" as="geometry" />
        </mxCell>
        <mxCell id="h9RAE376XjcLG4TrBPpC-44" value="place finger" style="whiteSpace=wrap;html=1;" vertex="1" parent="1">
          <mxGeometry x="496" y="830" width="120" height="60" as="geometry" />
        </mxCell>
        <mxCell id="h9RAE376XjcLG4TrBPpC-49" value="" style="edgeStyle=orthogonalEdgeStyle;rounded=0;orthogonalLoop=1;jettySize=auto;html=1;" edge="1" parent="1" source="h9RAE376XjcLG4TrBPpC-46" target="h9RAE376XjcLG4TrBPpC-48">
          <mxGeometry relative="1" as="geometry" />
        </mxCell>
        <mxCell id="h9RAE376XjcLG4TrBPpC-46" value="scanfinger" style="whiteSpace=wrap;html=1;" vertex="1" parent="1">
          <mxGeometry x="496" y="930" width="120" height="60" as="geometry" />
        </mxCell>
        <mxCell id="h9RAE376XjcLG4TrBPpC-51" value="" style="edgeStyle=orthogonalEdgeStyle;rounded=0;orthogonalLoop=1;jettySize=auto;html=1;" edge="1" parent="1" source="h9RAE376XjcLG4TrBPpC-48" target="h9RAE376XjcLG4TrBPpC-50">
          <mxGeometry relative="1" as="geometry" />
        </mxCell>
        <mxCell id="h9RAE376XjcLG4TrBPpC-48" value="save image to buffer" style="whiteSpace=wrap;html=1;" vertex="1" parent="1">
          <mxGeometry x="496" y="1020" width="120" height="60" as="geometry" />
        </mxCell>
        <mxCell id="h9RAE376XjcLG4TrBPpC-53" value="" style="edgeStyle=orthogonalEdgeStyle;rounded=0;orthogonalLoop=1;jettySize=auto;html=1;" edge="1" parent="1" source="h9RAE376XjcLG4TrBPpC-50" target="h9RAE376XjcLG4TrBPpC-52">
          <mxGeometry relative="1" as="geometry" />
        </mxCell>
        <mxCell id="h9RAE376XjcLG4TrBPpC-55" value="" style="edgeStyle=orthogonalEdgeStyle;rounded=0;orthogonalLoop=1;jettySize=auto;html=1;" edge="1" parent="1" source="h9RAE376XjcLG4TrBPpC-50" target="h9RAE376XjcLG4TrBPpC-54">
          <mxGeometry relative="1" as="geometry" />
        </mxCell>
        <mxCell id="h9RAE376XjcLG4TrBPpC-59" value="" style="edgeStyle=orthogonalEdgeStyle;rounded=0;orthogonalLoop=1;jettySize=auto;html=1;" edge="1" parent="1" source="h9RAE376XjcLG4TrBPpC-50" target="h9RAE376XjcLG4TrBPpC-58">
          <mxGeometry relative="1" as="geometry" />
        </mxCell>
        <mxCell id="h9RAE376XjcLG4TrBPpC-50" value="search for match?" style="rhombus;whiteSpace=wrap;html=1;" vertex="1" parent="1">
          <mxGeometry x="516" y="1110" width="80" height="80" as="geometry" />
        </mxCell>
        <mxCell id="h9RAE376XjcLG4TrBPpC-73" style="edgeStyle=orthogonalEdgeStyle;rounded=0;orthogonalLoop=1;jettySize=auto;html=1;exitX=0.5;exitY=1;exitDx=0;exitDy=0;" edge="1" parent="1" source="h9RAE376XjcLG4TrBPpC-52">
          <mxGeometry relative="1" as="geometry">
            <mxPoint x="433" y="1340" as="targetPoint" />
          </mxGeometry>
        </mxCell>
        <mxCell id="h9RAE376XjcLG4TrBPpC-52" value="show msg:Access granted" style="whiteSpace=wrap;html=1;" vertex="1" parent="1">
          <mxGeometry x="376" y="1198" width="114" height="60" as="geometry" />
        </mxCell>
        <mxCell id="h9RAE376XjcLG4TrBPpC-72" style="edgeStyle=orthogonalEdgeStyle;rounded=0;orthogonalLoop=1;jettySize=auto;html=1;exitX=0.5;exitY=1;exitDx=0;exitDy=0;" edge="1" parent="1" source="h9RAE376XjcLG4TrBPpC-54">
          <mxGeometry relative="1" as="geometry">
            <mxPoint x="556" y="1330" as="targetPoint" />
          </mxGeometry>
        </mxCell>
        <mxCell id="h9RAE376XjcLG4TrBPpC-54" value="show msg:access denied" style="whiteSpace=wrap;html=1;" vertex="1" parent="1">
          <mxGeometry x="496" y="1210" width="120" height="60" as="geometry" />
        </mxCell>
        <mxCell id="h9RAE376XjcLG4TrBPpC-56" value="yes" style="text;html=1;align=center;verticalAlign=middle;resizable=0;points=[];autosize=1;strokeColor=none;fillColor=none;" vertex="1" parent="1">
          <mxGeometry x="430" y="1168" width="40" height="30" as="geometry" />
        </mxCell>
        <mxCell id="h9RAE376XjcLG4TrBPpC-57" value="no" style="text;html=1;align=center;verticalAlign=middle;resizable=0;points=[];autosize=1;strokeColor=none;fillColor=none;" vertex="1" parent="1">
          <mxGeometry x="550" y="1188" width="40" height="30" as="geometry" />
        </mxCell>
        <mxCell id="h9RAE376XjcLG4TrBPpC-71" style="edgeStyle=orthogonalEdgeStyle;rounded=0;orthogonalLoop=1;jettySize=auto;html=1;exitX=0.5;exitY=1;exitDx=0;exitDy=0;" edge="1" parent="1" source="h9RAE376XjcLG4TrBPpC-58">
          <mxGeometry relative="1" as="geometry">
            <mxPoint x="710" y="1330" as="targetPoint" />
          </mxGeometry>
        </mxCell>
        <mxCell id="h9RAE376XjcLG4TrBPpC-58" value="show msg:Verify error" style="whiteSpace=wrap;html=1;" vertex="1" parent="1">
          <mxGeometry x="650" y="1120" width="120" height="60" as="geometry" />
        </mxCell>
        <mxCell id="h9RAE376XjcLG4TrBPpC-60" value="error" style="text;html=1;align=center;verticalAlign=middle;resizable=0;points=[];autosize=1;strokeColor=none;fillColor=none;" vertex="1" parent="1">
          <mxGeometry x="610" y="1120" width="50" height="30" as="geometry" />
        </mxCell>
        <mxCell id="h9RAE376XjcLG4TrBPpC-64" value="" style="edgeStyle=orthogonalEdgeStyle;rounded=0;orthogonalLoop=1;jettySize=auto;html=1;" edge="1" parent="1" source="h9RAE376XjcLG4TrBPpC-61" target="h9RAE376XjcLG4TrBPpC-63">
          <mxGeometry relative="1" as="geometry" />
        </mxCell>
        <mxCell id="h9RAE376XjcLG4TrBPpC-61" value="Option 3: Delete Finger" style="whiteSpace=wrap;html=1;" vertex="1" parent="1">
          <mxGeometry x="780" y="630" width="120" height="60" as="geometry" />
        </mxCell>
        <mxCell id="h9RAE376XjcLG4TrBPpC-66" value="" style="edgeStyle=orthogonalEdgeStyle;rounded=0;orthogonalLoop=1;jettySize=auto;html=1;" edge="1" parent="1" source="h9RAE376XjcLG4TrBPpC-63" target="h9RAE376XjcLG4TrBPpC-65">
          <mxGeometry relative="1" as="geometry" />
        </mxCell>
        <mxCell id="h9RAE376XjcLG4TrBPpC-63" value="Show msg:Enter Id&lt;div&gt;to delete&lt;/div&gt;" style="whiteSpace=wrap;html=1;" vertex="1" parent="1">
          <mxGeometry x="810" y="730" width="120" height="60" as="geometry" />
        </mxCell>
        <mxCell id="h9RAE376XjcLG4TrBPpC-68" value="" style="edgeStyle=orthogonalEdgeStyle;rounded=0;orthogonalLoop=1;jettySize=auto;html=1;" edge="1" parent="1" source="h9RAE376XjcLG4TrBPpC-65" target="h9RAE376XjcLG4TrBPpC-67">
          <mxGeometry relative="1" as="geometry" />
        </mxCell>
        <mxCell id="h9RAE376XjcLG4TrBPpC-65" value="promt input ID" style="whiteSpace=wrap;html=1;" vertex="1" parent="1">
          <mxGeometry x="820" y="820" width="120" height="60" as="geometry" />
        </mxCell>
        <mxCell id="h9RAE376XjcLG4TrBPpC-67" value="ID Deleted&lt;br&gt;show msg:&lt;br&gt;Deleted ID" style="whiteSpace=wrap;html=1;" vertex="1" parent="1">
          <mxGeometry x="820" y="910" width="120" height="60" as="geometry" />
        </mxCell>
        <mxCell id="h9RAE376XjcLG4TrBPpC-69" value="" style="endArrow=classic;html=1;rounded=0;exitX=0.5;exitY=1;exitDx=0;exitDy=0;entryX=0;entryY=0.5;entryDx=0;entryDy=0;" edge="1" parent="1" source="h9RAE376XjcLG4TrBPpC-67" target="h9RAE376XjcLG4TrBPpC-15">
          <mxGeometry width="50" height="50" relative="1" as="geometry">
            <mxPoint x="870" y="1030" as="sourcePoint" />
            <mxPoint x="-160" y="780" as="targetPoint" />
            <Array as="points">
              <mxPoint x="880" y="1330" />
              <mxPoint x="-160" y="1340" />
              <mxPoint x="-160" y="450" />
            </Array>
          </mxGeometry>
        </mxCell>
      </root>
    </mxGraphModel>
  </diagram>
</mxfile>
